<?xml version="1.0" encoding="UTF-8" standalone="no"?>
<!-- Created with Inkscape (http://www.inkscape.org/) -->

<svg
   xmlns:dc="http://purl.org/dc/elements/1.1/"
   xmlns:cc="http://creativecommons.org/ns#"
   xmlns:rdf="http://www.w3.org/1999/02/22-rdf-syntax-ns#"
   xmlns:svg="http://www.w3.org/2000/svg"
   xmlns="http://www.w3.org/2000/svg"
   xmlns:sodipodi="http://sodipodi.sourceforge.net/DTD/sodipodi-0.dtd"
   xmlns:inkscape="http://www.inkscape.org/namespaces/inkscape"
   id="svg2"
   version="1.1"
   inkscape:version="0.48.1 "
   viewBox="0 0 450.00012 269.65475" width="409" height="245"

   xml:space="preserve"
   sodipodi:docname="Logo Axiata.ai"><title
     id="title3071">Axiata logo</title><metadata
     id="metadata8"><rdf:RDF><cc:Work
         rdf:about=""><dc:format>image/svg+xml</dc:format><dc:type
           rdf:resource="http://purl.org/dc/dcmitype/StillImage" /><dc:title>Axiata logo</dc:title></cc:Work></rdf:RDF></metadata><defs
     id="defs6"><linearGradient
       x1="0"
       y1="0"
       x2="1"
       y2="0"
       gradientUnits="userSpaceOnUse"
       gradientTransform="matrix(0,-55.975723,55.975723,0,453.95996,537.68945)"
       spreadMethod="pad"
       id="linearGradient24"><stop
         style="stop-opacity:1;stop-color:#f1471d"
         offset="0"
         id="stop26" /><stop
         style="stop-opacity:1;stop-color:#f68712"
         offset="1"
         id="stop28" /></linearGradient><linearGradient
       x1="0"
       y1="0"
       x2="1"
       y2="0"
       gradientUnits="userSpaceOnUse"
       gradientTransform="matrix(47.160736,0,0,47.160736,430.17871,482.21631)"
       spreadMethod="pad"
       id="linearGradient44"><stop
         style="stop-opacity:1;stop-color:#292b66"
         offset="0"
         id="stop46" /><stop
         style="stop-opacity:1;stop-color:#c60e79"
         offset="1"
         id="stop48" /></linearGradient><linearGradient
       x1="0"
       y1="0"
       x2="1"
       y2="0"
       gradientUnits="userSpaceOnUse"
       gradientTransform="matrix(46.861923,0,0,46.861923,430.14746,455.01074)"
       spreadMethod="pad"
       id="linearGradient76"><stop
         style="stop-opacity:1;stop-color:#b21935"
         offset="0"
         id="stop78" /><stop
         style="stop-opacity:1;stop-color:#ec1159"
         offset="1"
         id="stop80" /></linearGradient><clipPath
       clipPathUnits="userSpaceOnUse"
       id="clipPath88"><path
         d="m 0,841.89 595.276,0 L 595.276,0 0,0 0,841.89 z"
         id="path90"
         inkscape:connector-curvature="0" /></clipPath></defs><sodipodi:namedview
     pagecolor="#ffffff"
     bordercolor="#666666"
     borderopacity="1"
     objecttolerance="10"
     gridtolerance="10"
     guidetolerance="10"
     inkscape:pageopacity="0"
     inkscape:pageshadow="2"
     inkscape:window-width="1280"
     inkscape:window-height="949"
     id="namedview4"
     showgrid="false"
     fit-margin-top="0"
     fit-margin-left="0"
     fit-margin-right="0"
     fit-margin-bottom="0"
     inkscape:zoom="1.8852818"
     inkscape:cx="259.50574"
     inkscape:cy="166.91503"
     inkscape:window-x="-9"
     inkscape:window-y="-9"
     inkscape:window-maximized="1"
     inkscape:current-layer="g10" /><g
     id="g10"
     inkscape:groupmode="layer"
     inkscape:label="Logo Axiata"
     transform="matrix(1.25,0,0,-1.25,-147.04862,705.70187)"><g
       id="g12"><g
         id="g14"><g
           id="g20"><g
             id="g22"><path
               d="m 430.208,482.397 47.431,27.383 -47.431,27.392 0,-54.775 z"
               style="fill:url(#linearGradient24);stroke:none"
               id="path30"
               inkscape:connector-curvature="0" /></g></g></g></g><g
       id="g32"><g
         id="g34"><g
           id="g40"><g
             id="g42"><path
               d="m 430.208,482.397 0,0 47.431,-27.39 0,54.772 -0.001,0 -47.43,-27.382 z"
               style="fill:url(#linearGradient44);stroke:none"
               id="path50"
               inkscape:connector-curvature="0" /></g></g></g></g><g
       id="g52"
       transform="translate(382.7588,455.0068)"><path
         d="m 0,0 47.449,-27.394 0,54.785 L 0,0 z"
         style="fill:#ee1e80;fill-opacity:1;fill-rule:nonzero;stroke:none"
         id="path54"
         inkscape:connector-curvature="0" /></g><g
       id="g56"
       transform="translate(382.7588,564.5615)"><path
         d="M 0,0 0,-54.772 47.449,-27.388 0,0 z"
         style="fill:#fab220;fill-opacity:1;fill-rule:nonzero;stroke:none"
         id="path58"
         inkscape:connector-curvature="0" /></g><g
       id="g60"
       transform="translate(430.208,537.1733)"><path
         d="M 0,0 0,0 -47.449,-27.384 0,-54.776 0,0 z"
         style="fill:#f68712;fill-opacity:1;fill-rule:nonzero;stroke:none"
         id="path62"
         inkscape:connector-curvature="0" /></g><g
       id="g64"><g
         id="g66"><g
           id="g72"><g
             id="g74"><path
               d="m 430.208,427.614 47.431,27.393 -47.431,27.39 0,-54.783 z"
               style="fill:url(#linearGradient76);stroke:none"
               id="path82"
               inkscape:connector-curvature="0" /></g></g></g></g><g
       id="g84"><g
         id="g86"
         clip-path="url(#clipPath88)"><g
           id="g92"
           transform="translate(157.1499,369.5137)"><path
             d="m 0,0 c 0,-3.747 -6.03,-8.315 -12.344,-8.315 -6.315,0 -9.669,3.075 -9.669,7.206 0,6.142 3.995,9.436 12.955,9.436 C -2.827,8.327 0,6.771 0,6.771 L 0,0 z m -10.646,44.652 c -14.854,0 -22.096,-5.027 -22.096,-9.968 l 0,-8.45 c 0,0 8.81,3.536 19.109,3.536 C -3.734,29.77 0,25.677 0,21.51 l 0,-3.584 c 0,0 -3.559,1.58 -11.978,1.58 -18.302,0 -27.533,-8.361 -27.533,-20.615 0,-13.259 10.627,-19.566 24.067,-19.566 10.695,0 15.444,4.02 15.444,4.02 l 0,-2.54 16.59,0 0,39.358 c 0,12.072 -5.218,24.489 -27.236,24.489 M 153.582,0 c 0,-3.747 -6.031,-8.315 -12.346,-8.315 -6.313,0 -9.668,3.075 -9.668,7.206 0,6.142 3.996,9.436 12.956,9.436 6.231,0 9.058,-1.556 9.058,-1.556 l 0,-6.771 z m -10.647,44.652 c -14.853,0 -22.095,-5.027 -22.095,-9.968 l 0,-8.45 c 0,0 8.81,3.536 19.108,3.536 9.9,0 13.634,-4.093 13.634,-8.26 l 0,-3.584 c 0,0 -3.559,1.58 -11.978,1.58 -18.303,0 -27.533,-8.361 -27.533,-20.615 0,-13.259 10.626,-19.566 24.067,-19.566 10.695,0 15.444,4.02 15.444,4.02 l 0,-2.54 16.59,0 0,39.358 c 0,12.072 -5.218,24.489 -27.237,24.489 M 257.809,0 c 0,-3.747 -6.03,-8.315 -12.345,-8.315 -6.314,0 -9.669,3.075 -9.669,7.206 0,6.142 3.997,9.436 12.956,9.436 6.231,0 9.058,-1.556 9.058,-1.556 l 0,-6.771 z m -10.647,44.652 c -14.853,0 -22.095,-5.027 -22.095,-9.968 l 0,-8.45 c 0,0 8.809,3.536 19.108,3.536 9.9,0 13.634,-4.093 13.634,-8.26 l 0,-3.584 c 0,0 -3.559,1.58 -11.978,1.58 -18.303,0 -27.534,-8.361 -27.534,-20.615 0,-13.259 10.627,-19.566 24.068,-19.566 10.695,0 15.444,4.02 15.444,4.02 l 0,-2.54 16.59,0 0,39.358 c 0,12.072 -5.219,24.489 -27.237,24.489 M 75.899,44.383 c -5.944,0 -11.992,-2.998 -15.571,-8.082 l -7.018,-9.973 -12.314,18.055 -21.11,0 23.28,-32.467 -21.896,-31.111 19.083,0 12.407,17.731 12.714,-17.731 18.884,0 -21.72,31.846 22.204,31.732 -8.943,0 z m 120.6,-43.721 0,29.486 13.952,0 7.987,14.235 -21.939,0 0,23.703 -8.77,-4.313 c -4.997,-2.457 -7.696,-6.66 -7.696,-10.82 l 0,-55.457 c 0,-7.706 3.065,-18.172 17.601,-18.172 8.455,0 14.245,3.136 14.245,5.048 l 0,10.916 c -9.08,-3.998 -15.38,-2.749 -15.38,5.374 M 88.983,31.87 l 0,-51.065 17.553,0 0,65.099 c 0,0 -4.861,-0.954 -9.858,-3.41 C 91.682,40.037 88.983,36.03 88.983,31.87"
             style="fill:#254aa5;fill-opacity:1;fill-rule:nonzero;stroke:none"
             id="path94"
             inkscape:connector-curvature="0" /></g></g></g></g></svg>